<svg width="114" height="114" viewBox="0 0 114 114" fill="none" xmlns="http://www.w3.org/2000/svg">
    <path
        d="M113.175 26.267C111.195 15.4727 105.486 7.74385 96.5383 2.8794C90.524 -0.387022 84.1488 -0.758955 77.6811 1.1808C72.5551 2.70848 67.9103 5.21112 64.3017 9.5429C61.785 12.5581 59.5738 15.8546 57.5474 19.2717C56.8072 20.518 56.733 20.4878 56.0021 19.2516C53.8832 15.6535 51.6903 12.0454 48.859 9.09055C42.1878 2.10544 34.064 -0.869487 24.8945 0.326526C17.3073 1.33158 11.1726 5.60305 6.44445 12.0052C1.61453 18.5682 -0.707913 26.0659 0.189601 34.5988C0.818786 40.609 2.31777 46.2374 5.3249 51.3732C8.96122 57.5542 13.4212 63.0418 17.7052 68.66C22.0817 74.3788 26.5692 79.987 31.0938 85.555C32.7408 87.5852 34.3969 89.6153 36.0624 91.6254C40.6333 97.1633 45.2874 102.621 50.1635 107.857C51.8753 109.706 53.6427 111.505 55.5765 113.093C56.474 113.837 57.1402 113.817 57.9545 113.043C59.0556 111.988 60.2583 111.043 61.3224 109.938C66.4946 104.561 71.3987 98.902 76.2101 93.1431C76.2286 93.1129 76.2564 93.0929 76.2749 93.0627C81.4287 86.8917 86.4806 80.6201 91.4771 74.2883C96.1404 68.3685 100.767 62.4086 105.134 56.2074C108.835 50.9711 111.805 45.3528 112.832 38.7295C113.101 37.0009 113.36 35.2823 113.619 33.5536V28.3675C113.212 27.7343 113.313 26.9705 113.175 26.267ZM96.4364 38.5185C94.3545 43.6443 91.1532 47.9861 87.998 52.348C84.482 57.2226 80.9011 62.0468 77.2648 66.8309C76.9132 67.2932 76.5617 67.7555 76.2101 68.2078C74.2485 70.7305 72.2314 73.2029 70.1773 75.6452C66.3282 80.2182 62.3957 84.7208 58.2967 89.0425C58.0747 89.2737 57.8434 89.4847 57.6398 89.7259C56.9736 90.4596 56.4647 90.3591 55.7707 89.6153C50.7558 84.2484 45.8519 78.7609 41.2255 73.0019C39.4952 70.8411 37.7649 68.6801 36.0624 66.5092C30.335 59.2125 24.7928 51.7652 19.8148 43.8453C17.5294 40.2071 15.8545 36.2672 15.5029 31.8148C15.2531 28.5283 16.3173 25.6437 18.1678 23.1412C20.1016 20.528 22.5072 18.5782 25.6346 17.8848C26.4673 17.6938 27.2909 17.7944 27.9941 17.714C31.3528 17.6336 33.925 18.9401 36.0624 21.0708C36.8952 21.895 37.6631 22.8497 38.3848 23.895C41.2902 28.1061 43.2334 32.8902 45.2135 37.6341C48.4704 45.4232 51.6996 53.2124 55.3822 60.7704C55.7246 61.4739 55.9836 62.5694 56.7331 62.5895C57.5103 62.5995 57.7694 61.494 58.1117 60.7905C62.59 51.7752 66.3282 42.3879 70.2606 33.0912C71.8521 29.3223 73.6656 25.6739 76.2101 22.5482C76.4599 22.2266 76.7281 21.9151 76.9964 21.6136C82.7054 15.2014 92.0322 16.8195 96.3347 24.6187C98.8977 29.2419 98.324 33.8852 96.4364 38.5185Z"
        fill="#E4F78C" />
</svg>
