<svg width="49" height="48" viewBox="0 0 49 48" fill="none" xmlns="http://www.w3.org/2000/svg">
<rect x="0.5" width="48" height="48" rx="24" fill="url(#paint0_linear_213_955)"/>
<g clip-path="url(#clip0_213_955)">
<path d="M24.5 24.9375C25.0178 24.9375 25.4375 24.5178 25.4375 24C25.4375 23.4822 25.0178 23.0625 24.5 23.0625C23.9822 23.0625 23.5625 23.4822 23.5625 24C23.5625 24.5178 23.9822 24.9375 24.5 24.9375Z" fill="#19191A"/>
<path d="M20.375 24.9375C20.8928 24.9375 21.3125 24.5178 21.3125 24C21.3125 23.4822 20.8928 23.0625 20.375 23.0625C19.8572 23.0625 19.4375 23.4822 19.4375 24C19.4375 24.5178 19.8572 24.9375 20.375 24.9375Z" fill="#19191A"/>
<path d="M28.625 24.9375C29.1428 24.9375 29.5625 24.5178 29.5625 24C29.5625 23.4822 29.1428 23.0625 28.625 23.0625C28.1072 23.0625 27.6875 23.4822 27.6875 24C27.6875 24.5178 28.1072 24.9375 28.625 24.9375Z" fill="#19191A"/>
<path d="M19.9934 31.7914C21.8839 32.8856 24.1078 33.2549 26.2505 32.8304C28.3931 32.406 30.3083 31.2168 31.6389 29.4846C32.9696 27.7524 33.6248 25.5954 33.4825 23.4157C33.3403 21.2361 32.4102 19.1825 30.8656 17.638C29.3211 16.0935 27.2676 15.1634 25.0879 15.0211C22.9083 14.8788 20.7513 15.534 19.019 16.8647C17.2868 18.1953 16.0976 20.1105 15.6732 22.2531C15.2488 24.3958 15.618 26.6197 16.7122 28.5102L15.5394 32.0118C15.4953 32.1439 15.4889 32.2857 15.5209 32.4213C15.5529 32.5569 15.622 32.6808 15.7205 32.7794C15.819 32.8779 15.943 32.947 16.0786 32.979C16.2142 33.011 16.356 33.0046 16.4881 32.9605L19.9934 31.7914Z" stroke="#19191A" stroke-width="1.4" stroke-linecap="round" stroke-linejoin="round"/>
</g>
<defs>
<linearGradient id="paint0_linear_213_955" x1="24.5" y1="0" x2="24.5" y2="48" gradientUnits="userSpaceOnUse">
<stop stop-color="#EAEAEA" stop-opacity="0.6"/>
<stop offset="1" stop-color="#EAEAEA" stop-opacity="0"/>
</linearGradient>
<clipPath id="clip0_213_955">
<rect width="24" height="24" fill="white" transform="translate(12.5 12)"/>
</clipPath>
</defs>
</svg>
