<svg width="49" height="48" viewBox="0 0 49 48" fill="none" xmlns="http://www.w3.org/2000/svg">
<rect x="0.5" width="48" height="48" rx="24" fill="#E0F97D"/>
<path d="M24.5 14.25C22.8167 14.2496 21.162 14.6851 19.6969 15.514C18.2318 16.3428 17.0062 17.5369 16.1395 18.98C15.2728 20.423 14.7945 22.0659 14.7511 23.7486C14.7077 25.4314 15.1007 27.0967 15.8919 28.5825L14.8278 31.7747C14.7397 32.039 14.7269 32.3226 14.7909 32.5938C14.8549 32.8649 14.9931 33.1129 15.1901 33.3099C15.3871 33.5069 15.6351 33.6451 15.9062 33.7091C16.1774 33.7731 16.461 33.7603 16.7253 33.6722L19.9175 32.6081C21.2251 33.3036 22.6739 33.6921 24.1541 33.744C25.6342 33.7959 27.1067 33.51 28.4599 32.9079C29.813 32.3057 31.0112 31.4033 31.9634 30.269C32.9157 29.1346 33.5971 27.7983 33.9557 26.3613C34.3144 24.9244 34.341 23.4246 34.0336 21.9758C33.7261 20.527 33.0926 19.1673 32.1812 17.9999C31.2697 16.8325 30.1043 15.8881 28.7734 15.2384C27.4425 14.5886 25.981 14.2506 24.5 14.25ZM20.375 25.125C20.1525 25.125 19.935 25.059 19.75 24.9354C19.565 24.8118 19.4208 24.6361 19.3356 24.4305C19.2505 24.225 19.2282 23.9988 19.2716 23.7805C19.315 23.5623 19.4222 23.3618 19.5795 23.2045C19.7368 23.0472 19.9373 22.94 20.1555 22.8966C20.3738 22.8532 20.6 22.8755 20.8055 22.9606C21.0111 23.0458 21.1868 23.19 21.3104 23.375C21.434 23.56 21.5 23.7775 21.5 24C21.5 24.2984 21.3815 24.5845 21.1705 24.7955C20.9595 25.0065 20.6734 25.125 20.375 25.125ZM24.5 25.125C24.2775 25.125 24.06 25.059 23.875 24.9354C23.69 24.8118 23.5458 24.6361 23.4606 24.4305C23.3755 24.225 23.3532 23.9988 23.3966 23.7805C23.44 23.5623 23.5472 23.3618 23.7045 23.2045C23.8618 23.0472 24.0623 22.94 24.2805 22.8966C24.4988 22.8532 24.725 22.8755 24.9305 22.9606C25.1361 23.0458 25.3118 23.19 25.4354 23.375C25.559 23.56 25.625 23.7775 25.625 24C25.625 24.2984 25.5065 24.5845 25.2955 24.7955C25.0845 25.0065 24.7984 25.125 24.5 25.125ZM28.625 25.125C28.4025 25.125 28.185 25.059 28 24.9354C27.815 24.8118 27.6708 24.6361 27.5856 24.4305C27.5005 24.225 27.4782 23.9988 27.5216 23.7805C27.565 23.5623 27.6722 23.3618 27.8295 23.2045C27.9868 23.0472 28.1873 22.94 28.4055 22.8966C28.6238 22.8532 28.85 22.8755 29.0555 22.9606C29.2611 23.0458 29.4368 23.19 29.5604 23.375C29.684 23.56 29.75 23.7775 29.75 24C29.75 24.2984 29.6315 24.5845 29.4205 24.7955C29.2095 25.0065 28.9234 25.125 28.625 25.125Z" fill="black"/>
</svg>
