<svg width="16" height="16" viewBox="0 0 16 16" fill="none" xmlns="http://www.w3.org/2000/svg">
<g clip-path="url(#clip0_2296_515)">
<path d="M13 2.5H3C2.72386 2.5 2.5 2.72386 2.5 3V13C2.5 13.2761 2.72386 13.5 3 13.5H13C13.2761 13.5 13.5 13.2761 13.5 13V3C13.5 2.72386 13.2761 2.5 13 2.5Z" stroke="white" stroke-linecap="round" stroke-linejoin="round"/>
<path d="M11 1.5V3.5" stroke="white" stroke-linecap="round" stroke-linejoin="round"/>
<path d="M5 1.5V3.5" stroke="white" stroke-linecap="round" stroke-linejoin="round"/>
<path d="M2.5 5.5H13.5" stroke="white" stroke-linecap="round" stroke-linejoin="round"/>
<path d="M8 8.875C8.34518 8.875 8.625 8.59518 8.625 8.25C8.625 7.90482 8.34518 7.625 8 7.625C7.65482 7.625 7.375 7.90482 7.375 8.25C7.375 8.59518 7.65482 8.875 8 8.875Z" fill="white"/>
<path d="M10.75 8.875C11.0952 8.875 11.375 8.59518 11.375 8.25C11.375 7.90482 11.0952 7.625 10.75 7.625C10.4048 7.625 10.125 7.90482 10.125 8.25C10.125 8.59518 10.4048 8.875 10.75 8.875Z" fill="white"/>
<path d="M5.25 11.375C5.59518 11.375 5.875 11.0952 5.875 10.75C5.875 10.4048 5.59518 10.125 5.25 10.125C4.90482 10.125 4.625 10.4048 4.625 10.75C4.625 11.0952 4.90482 11.375 5.25 11.375Z" fill="white"/>
<path d="M8 11.375C8.34518 11.375 8.625 11.0952 8.625 10.75C8.625 10.4048 8.34518 10.125 8 10.125C7.65482 10.125 7.375 10.4048 7.375 10.75C7.375 11.0952 7.65482 11.375 8 11.375Z" fill="white"/>
<path d="M10.75 11.375C11.0952 11.375 11.375 11.0952 11.375 10.75C11.375 10.4048 11.0952 10.125 10.75 10.125C10.4048 10.125 10.125 10.4048 10.125 10.75C10.125 11.0952 10.4048 11.375 10.75 11.375Z" fill="white"/>
</g>
<defs>
<clipPath id="clip0_2296_515">
<rect width="16" height="16" fill="white"/>
</clipPath>
</defs>
</svg>
