<svg width="49" height="48" viewBox="0 0 49 48" fill="none" xmlns="http://www.w3.org/2000/svg">
<rect x="0.5" width="48" height="48" rx="24" fill="#E0F97D"/>
<g clip-path="url(#clip0_213_66)">
<path d="M24.5 14.25C22.5716 14.25 20.6866 14.8218 19.0832 15.8932C17.4798 16.9645 16.2301 18.4873 15.4922 20.2688C14.7542 22.0504 14.5611 24.0108 14.9373 25.9021C15.3136 27.7934 16.2422 29.5307 17.6057 30.8943C18.9693 32.2579 20.7066 33.1865 22.5979 33.5627C24.4892 33.9389 26.4496 33.7458 28.2312 33.0078C30.0127 32.2699 31.5355 31.0202 32.6068 29.4168C33.6782 27.8134 34.25 25.9284 34.25 24C34.2473 21.415 33.2192 18.9366 31.3913 17.1087C29.5634 15.2808 27.085 14.2527 24.5 14.25ZM29.3356 19.6678L26.3356 25.6678C26.2989 25.7401 26.2401 25.7989 26.1678 25.8356L20.1678 28.8356C20.0974 28.871 20.0176 28.8833 19.9398 28.8708C19.8619 28.8582 19.79 28.8214 19.7343 28.7657C19.6786 28.71 19.6418 28.6381 19.6293 28.5603C19.6167 28.4824 19.629 28.4026 19.6644 28.3322L22.6644 22.3322C22.7011 22.2599 22.7599 22.2011 22.8322 22.1644L28.8322 19.1644C28.9026 19.129 28.9824 19.1167 29.0603 19.1292C29.1381 19.1418 29.21 19.1786 29.2657 19.2343C29.3214 19.29 29.3582 19.3619 29.3708 19.4397C29.3833 19.5176 29.371 19.5974 29.3356 19.6678Z" fill="#19191A"/>
</g>
<defs>
<clipPath id="clip0_213_66">
<rect width="24" height="24" fill="white" transform="translate(12.5 12)"/>
</clipPath>
</defs>
</svg>
