<svg width="20" height="21" viewBox="0 0 20 21" fill="none" xmlns="http://www.w3.org/2000/svg">
<g clip-path="url(#clip0_186_2042)">
<path d="M7.1875 5.96875C7.61897 5.96875 7.96875 5.61897 7.96875 5.1875C7.96875 4.75603 7.61897 4.40625 7.1875 4.40625C6.75603 4.40625 6.40625 4.75603 6.40625 5.1875C6.40625 5.61897 6.75603 5.96875 7.1875 5.96875Z" fill="black"/>
<path d="M12.8125 5.96875C13.244 5.96875 13.5938 5.61897 13.5938 5.1875C13.5938 4.75603 13.244 4.40625 12.8125 4.40625C12.381 4.40625 12.0312 4.75603 12.0312 5.1875C12.0312 5.61897 12.381 5.96875 12.8125 5.96875Z" fill="black"/>
<path d="M7.1875 11.2812C7.61897 11.2812 7.96875 10.9315 7.96875 10.5C7.96875 10.0685 7.61897 9.71875 7.1875 9.71875C6.75603 9.71875 6.40625 10.0685 6.40625 10.5C6.40625 10.9315 6.75603 11.2812 7.1875 11.2812Z" fill="black"/>
<path d="M12.8125 11.2812C13.244 11.2812 13.5938 10.9315 13.5938 10.5C13.5938 10.0685 13.244 9.71875 12.8125 9.71875C12.381 9.71875 12.0312 10.0685 12.0312 10.5C12.0312 10.9315 12.381 11.2812 12.8125 11.2812Z" fill="black"/>
<path d="M7.1875 16.5938C7.61897 16.5938 7.96875 16.244 7.96875 15.8125C7.96875 15.381 7.61897 15.0312 7.1875 15.0312C6.75603 15.0312 6.40625 15.381 6.40625 15.8125C6.40625 16.244 6.75603 16.5938 7.1875 16.5938Z" fill="black"/>
<path d="M12.8125 16.5938C13.244 16.5938 13.5938 16.244 13.5938 15.8125C13.5938 15.381 13.244 15.0312 12.8125 15.0312C12.381 15.0312 12.0312 15.381 12.0312 15.8125C12.0312 16.244 12.381 16.5938 12.8125 16.5938Z" fill="black"/>
</g>
<defs>
<clipPath id="clip0_186_2042">
<rect width="20" height="20" fill="white" transform="translate(0 0.5)"/>
</clipPath>
</defs>
</svg>
