<svg width="49" height="48" viewBox="0 0 49 48" fill="none" xmlns="http://www.w3.org/2000/svg">
<rect x="0.5" width="48" height="48" rx="24" fill="#E0F97D"/>
<g clip-path="url(#clip0_213_972)">
<path d="M34.1497 32.6251C34.0838 32.7391 33.9891 32.8338 33.8751 32.8997C33.761 32.9655 33.6317 33.0001 33.5 33.0001H15.5C15.3684 33 15.2392 32.9652 15.1253 32.8993C15.0114 32.8335 14.9168 32.7388 14.8511 32.6248C14.7853 32.5108 14.7507 32.3815 14.7508 32.2499C14.7508 32.1183 14.7855 31.9891 14.8512 31.8751C16.2791 29.4067 18.4794 27.6367 21.0472 26.7976C19.777 26.0415 18.7902 24.8893 18.2382 23.518C17.6863 22.1468 17.5997 20.6322 17.9918 19.207C18.3839 17.7818 19.233 16.5247 20.4088 15.6287C21.5845 14.7328 23.0218 14.2476 24.5 14.2476C25.9782 14.2476 27.4155 14.7328 28.5912 15.6287C29.7669 16.5247 30.6161 17.7818 31.0082 19.207C31.4003 20.6322 31.3137 22.1468 30.7618 23.518C30.2098 24.8893 29.223 26.0415 27.9528 26.7976C30.5206 27.6367 32.7209 29.4067 34.1487 31.8751C34.2147 31.989 34.2495 32.1183 34.2497 32.25C34.2499 32.3816 34.2154 32.511 34.1497 32.6251Z" fill="#19191A"/>
</g>
<defs>
<clipPath id="clip0_213_972">
<rect width="24" height="24" fill="white" transform="translate(12.5 12)"/>
</clipPath>
</defs>
</svg>
