<svg width="24" height="24" viewBox="0 0 24 24" fill="none" xmlns="http://www.w3.org/2000/svg">
<g clip-path="url(#clip0_2288_537)">
<path d="M22.4999 11.9894C22.5006 12.2567 22.4298 12.5193 22.295 12.75C22.1602 12.9808 21.9662 13.1713 21.733 13.3019L5.99049 22.3029C5.76458 22.4309 5.50954 22.4987 5.24987 22.4997C5.01061 22.4984 4.77513 22.4399 4.56308 22.3291C4.35104 22.2183 4.16859 22.0583 4.03095 21.8626C3.89332 21.6669 3.8045 21.4411 3.77191 21.2041C3.73932 20.967 3.76391 20.7256 3.84362 20.5L6.37487 13.0047C6.3996 12.9314 6.4464 12.8676 6.50883 12.822C6.57126 12.7763 6.64629 12.7511 6.72362 12.7497H13.4999C13.6027 12.75 13.7044 12.729 13.7988 12.6883C13.8932 12.6475 13.9782 12.5878 14.0486 12.5128C14.1189 12.4378 14.1731 12.3491 14.2077 12.2523C14.2423 12.1555 14.2567 12.0526 14.2499 11.95C14.2329 11.7572 14.1436 11.5779 14 11.448C13.8564 11.3181 13.6691 11.2473 13.4755 11.2497H6.72549C6.64703 11.2497 6.57055 11.2251 6.50681 11.1794C6.44307 11.1336 6.39528 11.0691 6.37018 10.9947L3.83893 3.50035C3.73818 3.21309 3.72721 2.90198 3.80749 2.60835C3.88777 2.31471 4.05548 2.05245 4.28836 1.8564C4.52124 1.66035 4.80825 1.5398 5.11128 1.51075C5.4143 1.48171 5.71899 1.54555 5.98487 1.69379L21.7349 10.6835C21.9667 10.8138 22.1597 11.0034 22.2942 11.2329C22.4286 11.4624 22.4996 11.7235 22.4999 11.9894Z" fill="#19191A"/>
</g>
<defs>
<clipPath id="clip0_2288_537">
<rect width="24" height="24" fill="white"/>
</clipPath>
</defs>
</svg>
