<svg width="49" height="48" viewBox="0 0 49 48" fill="none" xmlns="http://www.w3.org/2000/svg">
<rect x="0.5" width="48" height="48" rx="24" fill="url(#paint0_linear_213_967)"/>
<g clip-path="url(#clip0_213_967)">
<path d="M32.75 18.75H16.25C15.8358 18.75 15.5 19.0858 15.5 19.5V30.75C15.5 31.1642 15.8358 31.5 16.25 31.5H32.75C33.1642 31.5 33.5 31.1642 33.5 30.75V19.5C33.5 19.0858 33.1642 18.75 32.75 18.75Z" stroke="black" stroke-width="1.4" stroke-linecap="round" stroke-linejoin="round"/>
<path d="M20.75 18.75V18C20.75 17.0054 21.1451 16.0516 21.8483 15.3483C22.5516 14.6451 23.5054 14.25 24.5 14.25C25.4946 14.25 26.4484 14.6451 27.1517 15.3483C27.8549 16.0516 28.25 17.0054 28.25 18V18.75" stroke="black" stroke-width="1.4" stroke-linecap="round" stroke-linejoin="round"/>
</g>
<defs>
<linearGradient id="paint0_linear_213_967" x1="24.5" y1="0" x2="24.5" y2="48" gradientUnits="userSpaceOnUse">
<stop stop-color="#EAEAEA" stop-opacity="0.6"/>
<stop offset="1" stop-color="#EAEAEA" stop-opacity="0"/>
</linearGradient>
<clipPath id="clip0_213_967">
<rect width="24" height="24" fill="white" transform="translate(12.5 12)"/>
</clipPath>
</defs>
</svg>
